<svg class="icon" viewBox="0 0 1024 1024" xmlns="http://www.w3.org/2000/svg" width="128" height="128"><defs><style/></defs><path d="M483.556 10.724a85.333 85.333 0 0182.574 0L948.082 221.78a85.333 85.333 0 0144.089 74.695v419.016a85.333 85.333 0 01-44.09 74.666L566.13 1001.273a85.333 85.333 0 01-82.546 0L101.632 790.215a85.333 85.333 0 01-44.089-74.723V296.505a85.333 85.333 0 0144.089-74.638L483.556 10.695v.029zM222.15 338.688a42.667 42.667 0 0016.669 58.027l243.37 134.457v268.174a42.667 42.667 0 0085.334 0V531.172l243.37-134.543a42.667 42.667 0 00-41.244-74.638L524.857 457.244 280.12 321.991a42.667 42.667 0 00-57.97 16.725z"/></svg>