<svg class="icon" viewBox="0 0 1024 1024" xmlns="http://www.w3.org/2000/svg" width="128" height="128"><defs><style/></defs><path d="M381.3 87.3h-238C99.7 87.3 64 123 64 166.7v238c0 43.6 35.7 79.3 79.3 79.3h238c43.6 0 79.3-35.7 79.3-79.3v-238c.1-43.7-35.6-79.4-79.3-79.4zm0 476h-238C99.7 563.3 64 599 64 642.7v238c0 43.6 35.7 79.3 79.3 79.3h238c43.6 0 79.3-35.7 79.3-79.3v-238c.1-43.7-35.6-79.4-79.3-79.4zm476 0h-238c-43.6 0-79.3 35.7-79.3 79.3v238c0 43.6 35.7 79.3 79.3 79.3h238c43.6 0 79.3-35.7 79.3-79.3v-238c.1-43.6-35.6-79.3-79.3-79.3zm79.5-333.7L794.4 87.2c-30.9-30.9-81.3-30.9-112.2 0L539.8 229.6c-30.9 30.9-30.9 81.3 0 112.2l142.4 142.4c30.9 30.9 81.3 30.9 112.2 0l142.4-142.4c30.9-30.9 30.9-81.4 0-112.2z"/></svg>