<svg class="icon" viewBox="0 0 1024 1024" xmlns="http://www.w3.org/2000/svg" width="128" height="128"><defs><style/></defs><path d="M640 0c32.8 0 59.9 24.7 63.6 56.5l.4 7.5v165.6L901.5 32c25-25 65.5-25 90.5 0s25 65.5 0 90.5L794.6 320H960c32.8 0 59.9 24.7 63.6 56.5l.4 7.5c0 32.8-24.7 59.9-56.5 63.6l-7.5.4H576V64c0-35.3 28.7-64 64-64zM448 576v384c0 35.3-28.7 64-64 64-32.8 0-59.9-24.7-63.6-56.5l-.4-7.5V794.6L122.5 992c-25 25-65.5 25-90.5 0s-25-65.5 0-90.5L229.5 704H64C31.2 704 4.1 679.3.4 647.5L0 640c0-32.8 24.7-59.9 56.5-63.6l7.5-.4h384z"/></svg>