<svg class="icon" viewBox="0 0 1024 1024" xmlns="http://www.w3.org/2000/svg" width="128" height="128"><defs><style/></defs><path d="M762.88 643.413c-51.2 0-98.987 18.774-133.12 56.32-35.84 34.134-56.32 83.627-56.32 133.12 0 51.2 18.773 98.987 56.32 133.12 35.84 35.84 83.627 56.32 134.827 56.32s98.986-18.773 133.12-56.32c35.84-35.84 56.32-83.626 56.32-133.12 0-51.2-18.774-98.986-56.32-133.12-34.134-35.84-83.627-56.32-134.827-56.32zm49.493 141.654l52.907 8.533c13.653 1.707 18.773 18.773 10.24 29.013l-39.253 35.84c-3.414 3.414-5.12 10.24-5.12 15.36l8.533 52.907c1.707 13.653-11.947 23.893-25.6 18.773l-46.08-25.6c-5.12-3.413-10.24-3.413-15.36 0l-47.787 25.6c-11.946 6.827-27.306-3.413-25.6-18.773l8.534-52.907c1.706-5.12-1.707-11.946-5.12-15.36l-39.254-37.546c-10.24-10.24-5.12-27.307 10.24-29.014l52.907-8.533c5.12 0 10.24-5.12 13.653-8.533l23.894-47.787c6.826-11.947 23.893-11.947 30.72 0l23.893 47.787c3.413 5.12 8.533 8.533 13.653 10.24z"/><path d="M873.813 196.267L706.56 25.6C689.493 10.24 667.307 0 641.707 0h-496.64c-40.96 0-75.094 34.133-75.094 76.8v826.027c0 42.666 34.134 76.8 76.8 76.8H578.56c-37.547-40.96-63.147-81.92-63.147-145.067 0-133.12 112.64-245.76 250.88-245.76 59.734 0 93.867 20.48 136.534 54.613V261.12c-1.707-18.773-13.654-49.493-29.014-64.853zM715.093 460.8H256c-22.187 0-39.253-17.067-39.253-39.253 0-22.187 17.066-39.254 39.253-39.254h460.8c22.187 0 39.253 17.067 39.253 39.254 0 22.186-18.773 39.253-40.96 39.253zM256 643.413c-22.187 0-39.253-17.066-39.253-39.253s17.066-39.253 39.253-39.253h204.8c22.187 0 39.253 17.066 39.253 39.253s-18.773 39.253-40.96 39.253H256zM715.093 286.72H256c-22.187 0-39.253-17.067-39.253-39.253 0-22.187 17.066-39.254 39.253-39.254h460.8c22.187 0 39.253 17.067 39.253 39.254-1.706 22.186-18.773 39.253-40.96 39.253zm0 0"/></svg>