<svg class="icon" viewBox="0 0 1024 1024" xmlns="http://www.w3.org/2000/svg" width="128" height="128"><defs><style/></defs><path d="M776.56 267.756v.491s.717-.246 0-.491zm-40.796.491c31.95-1.495 39.363-.983 40.797-.491V79.319S711.352 8.294 654.15 3.748c-57.2-4.547-326.41 0-326.41 0s-63.815 26.214-81.592 75.571v188.928c.02 0 302.183-150.794 489.615 0zm-299.99-148.48V75.223h48.005V30.659h48.005v44.564h48.005v44.565h-48.005v44.564h-48.005v-44.585h-48.006zm259.194 526.357L531.763 948.429 368.558 646.124c-199.127 39.24-244.797 226.713-244.797 226.713V1024h816.005V872.858c0-.02-45.67-187.495-244.798-226.734zm-244.797 0h163.205c103.793-33.342 194.58-249.897 194.58-249.897-23.777-70.267-153.784-127.98-153.784-127.98H409.375C336.159 288.666 246.17 381.624 246.17 381.624c50.831 204.043 204 264.5 204 264.5z"/></svg>