<svg class="icon" viewBox="0 0 1024 1024" xmlns="http://www.w3.org/2000/svg" width="128" height="128"><defs><style/></defs><path d="M888.318 568.113c-69.238 0-125.424-54.837-125.424-122.581 0 67.744-56.185 122.58-125.423 122.58-69.214 0-125.423-54.836-125.423-122.58 0 67.744-56.185 122.58-125.423 122.58s-125.423-54.836-125.423-122.58c0 67.744-56.185 122.58-125.423 122.58S10.356 513.277 10.356 445.533l85.951-224.404h828.207l89.13 224.404c.097 67.744-56.088 122.58-125.326 122.58zm35.955-348.189l3.564 1.18h-3.25l-.314-1.18zm-53.945-64.036H153.672c-23.649 0-42.988-17.484-42.988-39.135 0-21.578 19.243-39.062 42.988-39.062h716.656c23.842 0 43.18 17.508 43.18 39.062 0 21.675-19.338 39.135-43.18 39.135zM168.05 644.214v257.759h688.069V644.214s9.778-.337 14.209 0h57.534v270.643c0 22.71-29.261 51.681-55.174 51.681H151.577c-26.082 0-55.174-28.971-55.174-51.681V644.214h71.647zm0 0"/></svg>