<svg class="icon" viewBox="0 0 1024 1024" xmlns="http://www.w3.org/2000/svg" width="128" height="128"><defs><style/></defs><path d="M311.956 616.662c6.203 53.274 14.96 93.534 34.056 141.09s61.18 110.927 112.629 148.632c51.328 37.705 135.13 72.978 191.81 69.207 56.68-3.77 81.857-24.812 108.007-51.57 26.029-26.637 84.654-108.008 105.088-183.783 20.434-75.897 7.663-102.534-8.757-124.549s-53.517-36.975-104.115-33.083c-50.598 3.892-105.21 35.516-108.372 61.545-4.744 40.38 69.815 45.976 57.774 81.37-4.865 14.23-22.988 25.785-71.032 24.326-48.044-1.46-100.588-24.934-112.872-62.275-12.163-37.34-6.933-71.64 19.096-89.64 109.588-76.384 146.199-139.388 153.375-167.971 7.176-28.583-4.014-62.153-32.475-87.938-61.059-55.22-183.904-30.53-243.503 11.92-88.303 63.247-112.629 159.942-100.71 262.72zM456.208 95.114c-10.216 23.232-23.717 71.762-10.095 111.656 13.623 40.017 65.072 85.263 121.63 74.681 56.558-10.582 54.855-99.493 43.786-138.05-9.973-34.907-60.571-92.317-95.844-95.114-35.272-2.798-49.26 23.596-59.477 46.827zM289.941 232.313c33.083 48.773 85.019 56.436 111.29 47.435 26.273-9 14.961-82.708-.972-116.643-19.826-42.327-65.923-46.219-92.804-32.353-26.758 13.744-50.598 52.787-17.514 101.56zm-85.02 34.907c-35.029 12.163-24.933 85.141-4.621 114.21 20.312 28.948 80.883 45.125 104.236 18.975 23.353-26.15-5.716-77.965-19.704-94.628-14.23-16.907-44.881-50.72-79.91-38.557zm-52.057 182.566c9.974-22.866 55.706-20.555 90.006-.73 43.3 25.056 45.003 87.817 19.46 98.156-20.555 8.27-57.165 2.919-79.91-15.326-22.866-18.122-39.53-59.355-29.556-82.1z"/></svg>