<svg class="icon" viewBox="0 0 1024 1024" xmlns="http://www.w3.org/2000/svg" width="128" height="128"><defs><style/></defs><path d="M244.3 662.8L193 624.1c-6.4-4.8-15.2-4.5-21.2.8l-95.2 82.9c-3.7 3.2-5.8 7.9-5.8 12.9V1007c0 9.4 7.6 17 16.9 17h146.5c9.3 0 16.9-7.6 16.9-17V676.4c0-5.3-2.5-10.4-6.8-13.6zm337.2-20.5L536 687.7c-5.3 5.3-13.4 6.5-20 2.9l-60.7-33.3c-11.3-6.5-25.4 1.6-25.4 14.7v335c0 9.4 7.6 17 16.9 17h146.5c9.3 0 16.9-7.6 16.9-17V654.4c.1-15.1-18.1-22.7-28.7-12.1zM920.3 427c-6.1-7.8-17.4-8.7-24.7-2l-101.1 92.6c-3.5 3.2-5.5 7.8-5.5 12.6V1007c0 9.4 7.6 17 16.9 17h146.5c9.3 0 16.9-7.6 16.9-17V495.5c0-3.8-1.3-7.5-3.6-10.5l-45.4-58zm97.6-419.3C1014 2.8 1008.2 0 1002 0c-.9 0-1.9.1-2.8.2l-241 33.2c-7.5 1-13.7 6.1-16.3 13.2s-1 15 4 20.6l52 57.6-274.6 253.3c-5.1 4.7-11.7 7.3-18.7 7.3-4.6 0-9.1-1.1-13.1-3.3L252.4 252.4c-8.3-4.5-17.8-6.9-27.2-6.9-13.1 0-25.9 4.6-36.1 12.8L25.5 391.1c-3.8 3.1-7 6.6-9.7 10.7-9.2 12.1-14 26.4-14 41.6C1.8 481.3 32.4 512 70 512c11.3 0 22.6-2.9 32.5-8.3 2.9-1.5 5.8-3.4 8.4-5.4h.1c.1-.1.3-.2.4-.3l.1-.1c.8-.6 1.6-1.3 2.5-2l121.6-98.7c4.3-3.5 9.8-5.4 15.3-5.4 4 0 8 1 11.5 2.9L491 518.5c8.4 4.5 17.8 6.9 27.2 6.9 14.4 0 28.2-5.4 38.8-15.2L878.4 214l52.5 58.2c3.8 4.2 9.3 6.7 14.9 6.7 9.4 0 17.5-6.4 19.7-15.7L1021.7 25c1.4-6.1 0-12.4-3.8-17.3z"/></svg>