<svg class="icon" viewBox="0 0 1024 1024" xmlns="http://www.w3.org/2000/svg" width="128" height="128"><defs><style/></defs><path d="M0 651.848c0 92.39 69.166 169.052 159.974 183.849l32.026 2.56h316.79l6.425-.886 316.795.886 32.02-2.56C954.835 820.9 1024 744.238 1024 651.847c0-81.177-53.432-150.25-128.046-175.85-2.698-160.769-137.774-290.259-303.944-290.259-119.854 0-223.508 67.354-273.034 165.238-23.409-25.134-57.293-40.96-94.996-40.96-70.703 0-128 55.67-128 124.273 0 17.92 3.911 34.959 10.89 50.36C43.566 515.098 0 578.539 0 651.848zm159.974-150.81l-15.36-40.264a57.825 57.825 0 0 1-5.401-24.53c0-33.418 33.792-83.087 86.81-83.087 18.201 0 39.516 9.078 51.711 21.975l50.038 34.77 42.542-56.74c48.174-71.818 129.444-121.2 221.092-121.2 129.254 0 256.84 123.202 258.883 246.364v43.658l45.01 12.052c50.739 17.08 84.766 63.028 84.766 114.315 0 59.438-60.887 133.913-122.23 143.687H515.119v.369h-6.426v-.369H194.237l-21.227-1.674c-61.348-9.779-129.116-82.53-129.116-141.972 0-46.485 39.608-120.96 116.08-147.354z"/><path d="M256 654.285h38.518l28.974-40.259h72.197l-1.009 40.259h35.538l2.54-182.17h-41.626L256 654.285zm140.436-70.58h-54.553l56.919-73.313-2.366 73.314zm266.112-91.52c-3.21-7.162-8.36-12.303-15.477-15.41-7.112-3.103-17.25-4.66-30.418-4.66h-74.061l-70.282 182.17h37.52l26.787-69.458h23.982c16.159 0 27.249-.41 33.29-1.25 10.348-1.397 18.75-3.46 25.19-6.159 6.431-2.678 12.693-6.64 18.801-11.847 6.088-5.223 11.7-12.18 16.789-20.88 5.1-8.699 8.448-17.643 10.07-26.839 1.752-9.948 1.03-18.509-2.19-25.666zm-35.87 28.765c-1.162 6.548-4.122 12.549-8.899 18.017-4.772 5.468-10.7 9.452-17.771 11.93-7.06 2.488-20.5 3.732-40.29 3.732h-11.56l20.331-52.562h26.839c12.18 0 19.912.635 23.22 1.93 3.281 1.28 5.657 3.318 7.1 6.144 1.45 2.822 1.793 6.426 1.03 10.809zm103.92-48.835l-70.282 182.17h37.52L768 472.115h-37.402z"/></svg>