<svg class="icon" viewBox="0 0 1024 1024" xmlns="http://www.w3.org/2000/svg" width="128" height="128"><defs><style/></defs><path d="M755.063 319.427c-65.743 0-119.209-53.466-119.209-119.184V62.983H207.267c-40.073 0-72.552 32.505-72.552 72.554v752.976c0 40.05 32.48 72.504 72.552 72.504h609.487c40.054 0 72.53-32.455 72.53-72.504V319.427h-134.22zm14.53 480.077H254.38v-48.605h515.214v48.605zm0-155.536H254.38v-48.605h515.214v48.605zm0-155.537H254.38v-48.605h515.214v48.605z"/><path d="M682.51 62.983v137.26c0 40.049 32.48 72.503 72.553 72.503h134.221L682.51 62.983z"/></svg>