<svg class="icon" viewBox="0 0 1024 1024" xmlns="http://www.w3.org/2000/svg" width="128" height="128"><defs><style/></defs><path d="M644.16 512c102.08-76.16 189.76-177.6 174.72-344.64a88 88 0 1 0-175.36 16v17.6l-309.12-56c0-3.84 0-7.36 2.56-11.52a88 88 0 0 0-170.24-44.8c-73.28 280 128 405.12 272.64 496.32 108.16 67.52 179.2 116.16 199.36 189.44L356.8 724.48a294.08 294.08 0 0 1 61.12-62.4L384 640c-37.44-24.32-77.44-50.56-115.84-80.64a342.72 342.72 0 0 0-115.52 295.68 88 88 0 0 0 87.68 80h8.32a88 88 0 0 0 79.36-96 209.28 209.28 0 0 1 0-22.08l310.72 54.72c0 5.44-2.24 10.88-3.84 16.64a88 88 0 1 0 170.24 45.12C860.8 720.96 760 597.76 644.16 512zM331.84 243.2l285.76 50.56a438.4 438.4 0 0 1-132.16 113.92C401.92 352 347.52 306.56 331.84 241.92z"/></svg>