<svg class="icon" viewBox="0 0 1024 1024" xmlns="http://www.w3.org/2000/svg" width="128" height="128"><defs><style>@font-face{font-family:feedback-iconfont;src:url(//at.alicdn.com/t/font_1031158_u69w8yhxdu.woff2?t=1630033759944) format(&quot;woff2&quot;),url(//at.alicdn.com/t/font_1031158_u69w8yhxdu.woff?t=1630033759944) format(&quot;woff&quot;),url(//at.alicdn.com/t/font_1031158_u69w8yhxdu.ttf?t=1630033759944) format(&quot;truetype&quot;)}</style></defs><path d="M102.4 375.467c-25.173 0-45.547-20.374-45.547-45.547V193.387c0-75.307 61.227-136.534 136.534-136.534H329.92c25.173 0 45.547 20.374 45.547 45.547s-20.374 45.547-45.547 45.547H193.387c-25.067 0-45.547 20.373-45.547 45.546v136.534c0 25.066-20.373 45.44-45.44 45.44zm864.747-45.547V193.387c0-75.307-61.227-136.534-136.534-136.534H694.08c-25.173 0-45.547 20.374-45.547 45.547s20.374 45.547 45.547 45.547h136.533c25.067 0 45.547 20.373 45.547 45.546v136.534c0 25.173 20.373 45.546 45.547 45.546 25.066-.106 45.44-20.48 45.44-45.653zm0 500.693V694.08c0-25.173-20.374-45.547-45.547-45.547s-45.547 20.374-45.547 45.547v136.533c0 25.067-20.373 45.547-45.546 45.547H693.973c-25.173 0-45.546 20.373-45.546 45.547s20.373 45.546 45.546 45.546h136.534c75.413-.106 136.64-61.333 136.64-136.64zM375.467 921.6c0-25.173-20.374-45.547-45.547-45.547H193.387c-25.067 0-45.547-20.373-45.547-45.546V693.973c0-25.173-20.373-45.546-45.547-45.546S56.747 668.8 56.747 693.973v136.534c0 75.306 61.226 136.533 136.533 136.533h136.533c25.28.107 45.654-20.267 45.654-45.44z"/></svg>