<svg class="icon" viewBox="0 0 1024 1024" xmlns="http://www.w3.org/2000/svg" width="128" height="128"><defs><style/></defs><path d="M896 42.667H128c-36.267 0-64 27.733-64 64v810.666c0 36.267 27.733 64 64 64h768c36.267 0 64-27.733 64-64V106.667c0-36.267-27.733-64-64-64zM768 384c-8.533 106.667-140.8 192-256 192s-247.467-85.333-256-192c-25.6-4.267-42.667-25.6-42.667-53.333 0-29.867 23.467-53.334 53.334-53.334S320 300.8 320 330.667c0 17.066-8.533 32-21.333 42.666 0 87.467 119.466 160 213.333 160s213.333-72.533 213.333-160c-12.8-10.666-21.333-25.6-21.333-42.666 0-29.867 23.467-53.334 53.333-53.334s53.334 23.467 53.334 53.334c0 25.6-19.2 46.933-42.667 53.333z"/></svg>