<svg class="icon" viewBox="0 0 1024 1024" xmlns="http://www.w3.org/2000/svg" width="128" height="128"><defs><style/></defs><path d="M988.672 935.723h-52.95v52.949h-35.327v-52.95h-52.907v-35.327h52.907v-52.907h35.328v52.907h52.949v35.328zM141.227 133.12H114.09v-27.179H97.792v27.179H70.613v16.213h27.179v27.179h16.299v-27.179h27.136V133.12zm66.944 313.856h215.552L276.65 301.056a64.256 64.256 0 0 0-90.454 0L18.773 467.2a63.019 63.019 0 0 0 0 89.685l167.424 166.102a64.427 64.427 0 0 0 90.454 0l146.517-145.323H208.171V446.976zm369.408-238.848v215.04l145.408-146.56c24.746-24.917 24.746-65.45 0-90.453L556.928 18.773a63.061 63.061 0 0 0-89.77 0l-166.06 167.382a64.256 64.256 0 0 0 0 90.453l145.92 147.115V208.128h130.56zM446.464 815.744v-215.04l-145.45 146.645a64.47 64.47 0 0 0 0 90.454l166.143 167.509c24.704 24.917 64.896 24.917 89.728 0l166.016-167.595a64.256 64.256 0 0 0 0-90.453l-145.92-146.987v215.595H446.464v-.128zm558.848-348.715L837.845 301.056a64.47 64.47 0 0 0-90.453 0l-146.56 145.323h215.04V576.98H600.32L747.392 722.9a64.256 64.256 0 0 0 90.453 0l167.51-166.144a63.232 63.232 0 0 0 0-89.728z"/></svg>