<svg class="icon" viewBox="0 0 1024 1024" xmlns="http://www.w3.org/2000/svg" width="128" height="128"><defs><style/></defs><path d="M75.264 197.632h873.984c43.52 0 75.264-32.256 75.264-76.288s-31.744-76.288-75.264-76.288H75.264C31.744 45.056 0 76.8 0 121.344s31.744 76.288 75.264 76.288zm873.472 628.736H75.264C31.744 826.368 0 858.624 0 902.656s31.744 76.288 75.264 76.288h873.984c43.52 0 75.264-32.256 75.264-76.288s-32.256-76.288-75.776-76.288zM75.264 588.288H512c43.52 0 75.264-32.256 75.264-76.288S555.52 435.712 512 435.712H75.264C31.744 435.712 0 467.968 0 512s31.744 76.288 75.264 76.288z"/></svg>