<svg class="icon" viewBox="0 0 1024 1024" xmlns="http://www.w3.org/2000/svg" width="128" height="128"><defs><style/></defs><path d="M905.38 462.05l118.474-117.596-105.97-177.42-164.255 40.443-89.514-50.389L617.75 0H405.885L359.81 157.162l-89.514 50.46-164.255-40.441L0 344.454l118.182 117.523v99.753L0 679.4l105.969 177.42 164.255-40.516 89.514 50.461 46.074 157.162h211.937l46.074-157.162 89.587-50.461 164.182 40.515L1023.634 679.4 905.452 561.876v-99.825zm-563.998 49.877a170.545 170.545 0 0 1 170.545-170.618 170.545 170.545 0 0 1 170.618 170.618 170.545 170.545 0 0 1-170.618 170.618 170.545 170.545 0 0 1-170.618-170.618z"/></svg>