<?xml version="1.0" standalone="no"?><!DOCTYPE svg PUBLIC "-//W3C//DTD SVG 1.1//EN" "http://www.w3.org/Graphics/SVG/1.1/DTD/svg11.dtd"><svg t="1596094492595" class="icon" viewBox="0 0 1097 1024" version="1.1" xmlns="http://www.w3.org/2000/svg" p-id="2159" xmlns:xlink="http://www.w3.org/1999/xlink" width="214.2578125" height="200"><defs><style type="text/css"></style></defs><path d="M705.024 0l240.201143 238.445714v693.613715a92.16 92.16 0 0 1-92.013714 91.282285H165.156571c-50.468571 0-92.013714-40.521143-92.013714-91.282285V91.282286C73.142857 41.252571 113.956571 0 165.156571 0h539.794286z m16.530286 96.987429v111.616a13.897143 13.897143 0 0 0 13.458285 13.312h112.420572l-125.805714-124.928z m166.107428 835.072V279.04H735.085714a70.802286 70.802286 0 0 1-70.875428-70.363429V56.539429H165.156571V57.051429a34.450286 34.450286 0 0 0-34.523428 34.157714v840.777143a33.938286 33.938286 0 0 0 34.523428 34.230857h688.054858a34.450286 34.450286 0 0 0 34.450285-34.230857zM295.497143 348.16a28.672 28.672 0 0 1-28.672-28.525714 28.233143 28.233143 0 0 1 28.672-28.525715H542.72a28.672 28.672 0 0 1 28.745143 28.525715 28.233143 28.233143 0 0 1-28.745143 28.525714H295.497143z m426.861714 336.018286a28.525714 28.525714 0 1 1 0 56.978285H295.424a28.525714 28.525714 0 1 1 0-57.051428h426.861714zM295.424 490.715429h426.861714a28.672 28.672 0 0 1 28.745143 28.525714 28.233143 28.233143 0 0 1-28.745143 28.525714H295.424a28.672 28.672 0 0 1-28.672-28.525714 28.233143 28.233143 0 0 1 28.672-28.525714z" fill="#FF884D" p-id="2160"></path></svg>