<?xml version="1.0" encoding="utf-8"?>
<!-- Generator: Adobe Illustrator 21.1.0, SVG Export Plug-In . SVG Version: 6.00 Build 0)  -->
<svg version="1.1" id="图层_1" xmlns="http://www.w3.org/2000/svg" xmlns:xlink="http://www.w3.org/1999/xlink" x="0px" y="0px"
	 viewBox="0 0 40 40" style="enable-background:new 0 0 40 40;" xml:space="preserve">
<style type="text/css">
	.st0{fill:#FFE8D9;}
	.st1{fill:#5B4D4D;}
	.st2{fill:#FF884D;}
</style>
<g>
	<rect x="6.9" y="28.4" class="st0" width="25.4" height="3.1"/>
	<path class="st1" d="M31.1,32.8H8.1c-0.7,0-1.2-0.4-1.4-1.1L3,18.1c-0.1-0.6,0-1.1,0.5-1.5c0.4-0.3,1-0.4,1.5-0.2l6.7,2.2L18.8,9
		C19,8.6,19.5,8.4,20,8.4c0,0,0,0,0,0c0.5,0,0.9,0.2,1.2,0.6l7.3,9.6l6.4-2.1c0.5-0.2,1.1-0.1,1.5,0.2c0.4,0.4,0.6,1,0.4,1.5
		l-4.3,13.5C32.3,32.4,31.7,32.8,31.1,32.8z M8.7,31.2L8.7,31.2C8.7,31.2,8.7,31.2,8.7,31.2z M8.6,30.8h22.1l3.8-12.1l-5.8,1.9
		c-0.6,0.2-1.3,0-1.7-0.5L20,10.7l-6.9,9.3c-0.4,0.5-1.1,0.8-1.7,0.5l-6.1-2L8.6,30.8z M20.4,10.1L20.4,10.1
		C20.4,10.2,20.4,10.1,20.4,10.1z"/>
	<circle class="st2" cx="2.7" cy="15.6" r="2.6"/>
	<circle class="st2" cx="37.3" cy="15.6" r="2.6"/>
	<circle class="st2" cx="20.1" cy="5.7" r="3.2"/>
	<path class="st1" d="M30.8,37.5H8.3c-0.7,0-1.3-0.4-1.3-1l0,0c0-0.6,0.6-1,1.3-1h22.5c0.7,0,1.3,0.4,1.3,1l0,0
		C32.1,37,31.5,37.5,30.8,37.5z"/>
	<path class="st2" d="M23.8,21.8c-0.6-0.4-1.4-0.1-1.8,0.5l-1.9,3.3l-1.9-3.3c-0.4-0.6-1.2-0.8-1.8-0.5c-0.6,0.4-0.8,1.2-0.5,1.8
		l3,5.1c0.1,0.3,0.3,0.5,0.5,0.6c0.1,0.1,0.2,0.1,0.3,0.1c0,0,0,0,0,0c0.1,0,0.1,0,0.2,0c0,0,0.1,0,0.1,0c0,0,0.1,0,0.1,0
		c0.1,0,0.1,0,0.2,0c0,0,0,0,0,0c0.1,0,0.2-0.1,0.3-0.1c0.3-0.1,0.4-0.4,0.5-0.6l3-5.1C24.6,22.9,24.4,22.1,23.8,21.8z"/>
</g>
</svg>
