<?xml version="1.0" encoding="utf-8"?>
<!-- Generator: Adobe Illustrator 21.1.0, SVG Export Plug-In . SVG Version: 6.00 Build 0)  -->
<svg version="1.1" id="图层_1" xmlns="http://www.w3.org/2000/svg" xmlns:xlink="http://www.w3.org/1999/xlink" x="0px" y="0px"
	 viewBox="0 0 40 40" style="enable-background:new 0 0 40 40;" xml:space="preserve">
<style type="text/css">
	.st0{fill:#FFE8D9;}
	.st1{fill:none;stroke:#5B4D4D;stroke-width:2;stroke-miterlimit:10;}
	.st2{fill:#FF884D;}
	.st3{fill:#5B4D4D;}
</style>
<g>
	<rect x="6.4" y="33.1" class="st0" width="27" height="3"/>
	<rect x="13.1" y="6.7" class="st0" width="13.1" height="1.8"/>
	<path class="st1" d="M25.6,3.9h-2.1c0,0-0.1,0-0.1-0.1V2.9c0-0.6-0.4-1-1-1h-4.8c-0.6,0-1,0.4-1,1v0.9c0,0,0,0.1-0.1,0.1h-2.1
		c-0.8,0-1.5,0.7-1.5,1.5V8c0,0.8,0.7,1.5,1.5,1.5h11c0.8,0,1.5-0.7,1.5-1.5V5.4C27,4.6,26.4,3.9,25.6,3.9z"/>
	<path class="st2" d="M18.1,27.5l-4.9-4.9c-0.6-0.6-0.7-1.5-0.2-1.9l0,0c0.5-0.5,1.4-0.4,1.9,0.2l4.9,4.9c0.6,0.6,0.7,1.5,0.2,1.9
		l0,0C19.6,28.1,18.7,28.1,18.1,27.5z"/>
	<path class="st2" d="M28.8,19l-8.5,8.5c-0.6,0.6-1.5,0.7-1.9,0.2l0,0c-0.5-0.5-0.4-1.4,0.2-1.9l8.5-8.5c0.6-0.6,1.5-0.7,1.9-0.2
		l0,0C29.4,17.6,29.4,18.4,28.8,19z"/>
	<path class="st3" d="M31.7,5.8h-4.2v2h4.2c0.8,0,1.5,0.7,1.5,1.5v25.3c0,0.8-0.7,1.5-1.5,1.5H8.3c-0.8,0-1.5-0.7-1.5-1.5V9.3
		c0-0.8,0.7-1.5,1.5-1.5h4.3v-2H8.3c-1.9,0-3.5,1.6-3.5,3.5v25.3c0,1.9,1.6,3.5,3.5,3.5h23.3c1.9,0,3.5-1.6,3.5-3.5V9.3
		C35.2,7.4,33.6,5.8,31.7,5.8z"/>
</g>
</svg>
