<?xml version="1.0" encoding="utf-8"?>
<!-- Generator: Adobe Illustrator 21.1.0, SVG Export Plug-In . SVG Version: 6.00 Build 0)  -->
<svg version="1.1" id="图层_1" xmlns="http://www.w3.org/2000/svg" xmlns:xlink="http://www.w3.org/1999/xlink" x="0px" y="0px"
	 viewBox="0 0 40 40" style="enable-background:new 0 0 40 40;" xml:space="preserve">
<style type="text/css">
	.st0{fill:#FFE8D9;}
	.st1{fill:#FF884D;}
	.st2{fill:#5B4D4D;}
</style>
<g>
	<rect x="3.8" y="31" class="st0" width="32.6" height="3.8"/>
	
		<rect x="19.8" y="18.6" transform="matrix(-0.1435 -0.9896 0.9896 -0.1435 17.046 55.6633)" class="st0" width="25.7" height="3.8"/>
	<path class="st1" d="M28.8,7.6H11.2c-0.7,0-1.2-0.5-1.2-1.2v-2c0-0.7,0.5-1.2,1.2-1.2h17.5c0.7,0,1.2,0.5,1.2,1.2v2
		C30,7.1,29.4,7.6,28.8,7.6z"/>
	<path class="st2" d="M33.9,36.8H6.1c-1.7,0-3.1-1.3-3.1-2.9l0-0.1L5.7,9.2c0-1.6,1.4-2.9,3.1-2.9h22.4c1.7,0,3.1,1.3,3.1,2.9
		L37,33.9C37,35.5,35.6,36.8,33.9,36.8z M5,33.9c0,0.5,0.5,0.9,1.1,0.9h27.7c0.6,0,1.1-0.4,1.1-0.9L32.3,9.2c0-0.5-0.5-0.9-1.1-0.9
		H8.8c-0.6,0-1.1,0.4-1.1,0.9l0,0.1L5,33.9z"/>
	<path class="st2" d="M26.8,14.9c-0.6,0-1,0.4-1,1c0,3.2-2.6,5.8-5.8,5.8c-3.2,0-5.8-2.6-5.8-5.8c0-0.6-0.4-1-1-1c-0.6,0-1,0.4-1,1
		c0,4.3,3.5,7.8,7.8,7.8s7.8-3.5,7.8-7.8C27.8,15.4,27.4,14.9,26.8,14.9z"/>
</g>
</svg>
