<?xml version="1.0" standalone="no"?><!DOCTYPE svg PUBLIC "-//W3C//DTD SVG 1.1//EN" "http://www.w3.org/Graphics/SVG/1.1/DTD/svg11.dtd"><svg t="1596095399332" class="icon" viewBox="0 0 1024 1024" version="1.1" xmlns="http://www.w3.org/2000/svg" p-id="2161" xmlns:xlink="http://www.w3.org/1999/xlink" width="200" height="200"><defs><style type="text/css"></style></defs><path d="M512.22851563 680.75c-95.625 0-168.75-73.125-168.75000001-168.75s73.125-168.75 168.75000001-168.75 168.75 73.125 168.74999999 168.75-73.125 168.75-168.74999999 168.75z m0-281.25c-61.875 0-112.5 50.625-112.50000001 112.5s50.625 112.5 112.5 112.5 112.5-50.625 112.5-112.5-50.625-112.5-112.5-112.5z" fill="#FF884D" p-id="2162"></path><path d="M624.72851563 962h-225.00000001c-16.875 0-28.125-11.25-28.12499999-28.125V827c-22.5-11.25-45-22.5-61.875-33.75l-90.00000001 56.25c-11.25 5.625-28.125 5.625-39.375-11.25l-112.5-196.875c-11.25-16.875-5.625-33.75 11.25-39.375l90-56.25V512v-33.75l-90-56.25c-16.875-5.625-22.5-22.5-11.25-39.375l112.5-196.875c5.625-11.25 22.5-16.875 39.375-5.625l90 56.25c16.875-11.25 39.375-28.125 61.875-33.75V90.125c0-16.875 11.25-28.125 28.125-28.125h225.00000001c16.875 0 28.125 11.25 28.12499999 28.125v106.875c22.5 11.25 45 22.5 61.875 33.75l90.00000001-56.25c11.25-5.625 28.125-5.625 39.375 11.25l112.5 196.875c11.25 16.875 5.625 33.75-11.25 39.375l-90 56.25v67.5l90 56.25c11.25 5.625 16.875 22.5 11.25 39.375l-112.5 196.875c-5.625 11.25-22.5 16.875-39.375 11.25l-90-56.25c-16.875 11.25-39.375 28.125-61.875 33.75V933.875c0 16.875-11.25 28.125-28.125 28.125z m-196.87500001-56.25h168.75000001V810.125c0-11.25 5.625-22.5 16.87499999-28.125 28.125-11.25 56.25-28.125 78.75000001-45 11.25-5.625 22.5-5.625 33.75 0l84.375 50.625 84.375-146.25-84.375-50.625c-11.25-11.25-16.875-22.5-11.25-33.75 0-16.875 5.625-28.125 5.625-45s0-28.125-5.625-45c0-11.25 5.625-22.5 11.25-28.125l84.375-50.625-84.375-146.25-84.375 50.625c-11.25 5.625-22.5 5.625-33.75 0-22.5-16.875-50.625-33.75-78.75-45-11.25-11.25-16.875-22.5-16.875-33.75V118.25h-168.75000001v95.625c0 11.25-5.625 22.5-16.87499999 28.125-28.125 11.25-56.25 28.125-78.75000001 45-11.25 5.625-22.5 5.625-33.75 0l-84.375-45-84.375 146.25 84.375 50.625c11.25 5.625 16.875 16.875 11.25 28.125 0 16.875-5.625 28.125-5.625 45s0 28.125 5.625 45c5.625 11.25 0 22.5-11.25 28.125l-84.375 50.625 84.375 146.25 84.375-50.625c11.25-5.625 22.5-5.625 33.75 0 22.5 16.875 50.625 33.75 78.75 45 11.25 5.625 16.875 16.875 16.875 28.125V905.75z" fill="#5B4D4D" p-id="2163"></path></svg>